<svg viewBox="0 0 949 251" xmlns="http://www.w3.org/2000/svg" fill-rule="evenodd" clip-rule="evenodd" stroke-linejoin="round" stroke-miterlimit="2"><path fill="#104352" d="M.14.18h250.4v250.4H.14zM862.13 73.23h14.22v55.81h-14.22zM862.13 44.66h14.22v13.96h-14.22zM716.04 72.75h14.22v55.81h-14.22zM716.04 44.18h14.22v13.96h-14.22z"></path><path d="M910.54 44.08v84h14v-71h24v-13h-38z" fill="#104352" fill-rule="nonzero"></path><path fill="#104352" d="M312.23 176.59h3.79v27.93h-3.79z"></path><path d="M332.98 180.14h-9v-3.55h21.78v3.55h-9v24.38h-3.78v-24.38zM388.1 182.62a7.8 7.8 0 00-3-2.36 8.93 8.93 0 00-3.75-.83 9.86 9.86 0 00-7.56 3.31 11.08 11.08 0 00-2.1 3.61 12.94 12.94 0 00-.05 8.62 10.46 10.46 0 002.05 3.47 9.6 9.6 0 003.28 2.37c1.29.58 2.75.87 4.38.87a8.7 8.7 0 004.22-.99 9.05 9.05 0 003.08-2.76l3.2 2.4a11.1 11.1 0 01-3.2 2.86 13.43 13.43 0 01-7.38 2.03c-2.21 0-4.2-.41-5.98-1.26a14.43 14.43 0 01-7.4-7.94 14.55 14.55 0 01-.98-5.23c0-2.16.35-4.15 1.06-5.98.71-1.83 1.7-3.4 2.98-4.73a13.3 13.3 0 014.6-3.1 15.4 15.4 0 0111.34-.04c1.78.71 3.23 1.8 4.36 3.28l-3.16 2.4zM413.19 201.68a10.28 10.28 0 007.65-3.28c.92-1 1.63-2.17 2.13-3.53.5-1.35.75-2.8.75-4.32 0-1.52-.25-2.96-.75-4.32a10.3 10.3 0 00-5.44-5.92 10.3 10.3 0 00-4.34-.88 10.29 10.29 0 00-7.66 3.27c-.92 1-1.63 2.18-2.13 3.53-.5 1.36-.75 2.8-.75 4.32 0 1.53.25 2.97.75 4.32a10.24 10.24 0 009.78 6.8m0 3.56c-2.13 0-4.09-.38-5.87-1.13a13.66 13.66 0 01-7.6-7.75 15.3 15.3 0 01-1.08-5.8c0-2.08.36-4.01 1.08-5.8a13.68 13.68 0 017.6-7.75 15.05 15.05 0 015.88-1.13c2.13 0 4.08.38 5.87 1.13a13.7 13.7 0 017.6 7.75 15.33 15.33 0 011.08 5.8c0 2.08-.36 4.01-1.08 5.8a13.68 13.68 0 01-7.6 7.75 15.05 15.05 0 01-5.88 1.13M437.13 176.59h4.97l15.39 22.96h.08v-22.96h3.78v27.93h-4.81L441 181.56h-.08v22.96h-3.79v-27.93zM473.3 198.68a6.21 6.21 0 002.63 2.27c1.06.48 2.16.73 3.3.73a6.67 6.67 0 003.72-1.19c.54-.4.98-.88 1.32-1.46.35-.58.52-1.25.52-2 0-1.09-.35-1.9-1.03-2.48a8.89 8.89 0 00-2.54-1.42 49.25 49.25 0 00-3.32-1.1c-1.2-.35-2.3-.85-3.31-1.48a8.08 8.08 0 01-2.55-2.54 7.9 7.9 0 01-1.02-4.32 7.25 7.25 0 012.2-5.13 9.22 9.22 0 012.95-1.92c1.2-.5 2.63-.77 4.32-.77 1.52 0 2.98.22 4.37.64a7.52 7.52 0 013.67 2.56l-3.07 2.8a5.11 5.11 0 00-2.01-1.77 6.37 6.37 0 00-2.96-.67c-1.06 0-1.93.13-2.63.41a4.7 4.7 0 00-1.67 1.06c-.43.44-.72.9-.9 1.4-.16.5-.25.97-.25 1.39 0 1.18.34 2.09 1.03 2.72a7.94 7.94 0 002.54 1.54c1.01.4 2.12.75 3.32 1.06 1.2.32 2.3.76 3.31 1.32a7.72 7.72 0 012.54 2.3 6.73 6.73 0 011.03 3.96 8.06 8.06 0 01-2.84 6.35 9.2 9.2 0 01-3.08 1.7c-1.18.39-2.44.59-3.78.59-1.8 0-3.49-.32-5.1-.95a8.36 8.36 0 01-3.82-2.92l3.12-2.68zM501.63 176.59v17.12c0 .87.12 1.77.36 2.7.23.93.63 1.8 1.18 2.58a6.41 6.41 0 002.17 1.94c.9.5 2 .75 3.31.75a6.7 6.7 0 003.32-.75c.9-.5 1.62-1.15 2.17-1.94.55-.78.95-1.65 1.18-2.58a11 11 0 00.36-2.7v-17.12h3.78v17.71c0 1.63-.27 3.11-.82 4.44a10.09 10.09 0 01-5.72 5.7c-1.32.52-2.74.79-4.27.79-1.52 0-2.94-.27-4.26-.8a10.08 10.08 0 01-5.72-5.7c-.55-1.32-.82-2.8-.82-4.43v-17.71h3.78zM530.08 176.59h3.78v24.38h12.83v3.55h-16.61v-27.93zM556.7 180.14h-8.99v-3.55h21.78v3.55h-9v24.38h-3.78v-24.38z" fill="#104352" fill-rule="nonzero"></path><path fill="#104352" d="M577.46 176.59h3.79v27.93h-3.79z"></path><path d="M592.37 176.59h4.97l15.39 22.96h.07v-22.96h3.8v27.93h-4.82l-15.55-22.96h-.07v22.96h-3.8v-27.93zM651.5 188.9v13.76c-.68.42-1.46.8-2.32 1.1a24.63 24.63 0 01-8.25 1.47c-2.36 0-4.48-.4-6.33-1.19a13.88 13.88 0 01-4.7-3.2 13.78 13.78 0 01-2.91-4.67 15.8 15.8 0 01-1.01-5.62c0-2.08.36-4 1.09-5.8a13.7 13.7 0 017.6-7.75 15.05 15.05 0 015.87-1.13c2.58 0 4.68.33 6.31.97 1.63.65 3 1.53 4.1 2.66l-2.68 2.88a9.93 9.93 0 00-3.67-2.3 12.65 12.65 0 00-4.06-.65 10.29 10.29 0 00-7.66 3.27c-.92 1-1.63 2.18-2.13 3.53a12.38 12.38 0 00.08 8.72 10.56 10.56 0 0010.02 6.73c1.34 0 2.61-.13 3.81-.38 1.2-.25 2.22-.61 3.06-1.08v-7.77h-6.2v-3.56h9.99z" fill="#104352" fill-rule="nonzero"></path><path d="M673.6 176.59h6.7l4.46 17.9h.08l5.84-17.9h5.72l5.8 18.38h.08l4.7-18.38h6.23l-8.17 27.93h-5.48l-6.16-19.33h-.08l-6.15 19.33h-5.29l-8.28-27.93z" fill="#f2643c" fill-rule="nonzero"></path><path fill="#f2643c" d="M719.83 176.59h6.15v27.93h-6.15z"></path><path d="M740.94 182.03h-7.97v-5.44h22.1v5.44h-7.98v22.49h-6.15v-22.49zM762.12 176.59h6.16V187h11.95V176.6h6.16v27.93h-6.16v-12.07h-11.95v12.07h-6.16v-27.93zM811.87 176.59h6.15v22.25h11.4v5.68h-17.55v-27.93zM841.65 190.55c0 1.32.2 2.52.62 3.61a8 8 0 004.5 4.71c1.06.45 2.25.68 3.56.68 1.32 0 2.5-.23 3.57-.68a8 8 0 004.5-4.7c.4-1.1.61-2.3.61-3.62 0-1.29-.2-2.48-.6-3.59a8.02 8.02 0 00-4.5-4.73 9.14 9.14 0 00-3.58-.67c-1.31 0-2.5.22-3.57.67a8.02 8.02 0 00-4.5 4.73c-.4 1.1-.6 2.3-.6 3.6m-6.4 0c0-2.24.38-4.27 1.13-6.08a13.33 13.33 0 017.9-7.58 17.2 17.2 0 016.04-1.02c2.19 0 4.2.34 6.04 1.02a13.33 13.33 0 017.91 7.57 15.78 15.78 0 011.12 6.08c0 2.24-.37 4.26-1.12 6.08a13.32 13.32 0 01-7.91 7.57 17.23 17.23 0 01-6.04 1.03c-2.18 0-4.2-.35-6.03-1.03a13.32 13.32 0 01-7.91-7.57 15.78 15.78 0 01-1.13-6.08M870.77 176.59h7.02l6.9 18.3h.08l7.03-18.3h6.58l-11.51 27.93h-4.94l-11.16-27.93zM905.49 176.59h18.97v5.68h-12.82v5.2h12.11v5.69h-12.11v5.68h13.53v5.68H905.5v-27.93z" fill="#f2643c" fill-rule="nonzero"></path><path d="M422.25 129.04h-14.23V44.78h22.18l25.43 52.92 25.44-52.92h22.06v84.26H488.9V63.23l-29.4 58.46h-7.96l-29.3-58.46v65.8zM562.38 55.87c-4.14 0-7.53.85-10.18 2.54-2.65 1.68-3.98 4.23-3.98 7.65s1.33 6.03 3.98 7.83c2.65 1.81 8.3 3.76 16.93 5.85 8.64 2.09 15.15 5.02 19.53 8.8 4.38 3.78 6.57 9.34 6.57 16.7 0 7.35-2.77 13.31-8.32 17.9-5.54 4.57-12.82 6.86-21.81 6.86-13.18 0-24.87-4.54-35.08-13.62l8.92-10.73c8.52 7.4 17.36 11.1 26.52 11.1 4.58 0 8.21-.99 10.9-2.96a9.25 9.25 0 004.04-7.83 8.8 8.8 0 00-3.8-7.6c-2.52-1.8-6.88-3.45-13.07-4.94-6.19-1.49-10.89-2.85-14.1-4.1a31.78 31.78 0 01-8.56-4.88c-4.98-3.78-7.47-9.56-7.47-17.36 0-7.79 2.83-13.8 8.5-18.02 5.66-4.21 12.67-6.32 21.03-6.32 5.38 0 10.72.88 16.03 2.65a41.93 41.93 0 0113.74 7.47l-7.6 10.73c-2.49-2.25-5.86-4.1-10.12-5.55a38.99 38.99 0 00-12.6-2.17M670.04 86.91c2.85-3.01 4.28-7.43 4.28-13.26 0-5.82-1.81-9.94-5.43-12.35-3.61-2.41-9.28-3.62-17-3.62h-14.46v33.75h16.52c7.87 0 13.23-1.5 16.09-4.52m10.06-34.77c5.87 4.9 8.8 12.45 8.8 22.66 0 10.2-3 17.68-8.98 22.42-5.98 4.74-15.17 7.1-27.54 7.1h-14.95v24.72h-14.22V44.79h28.93c12.78 0 22.1 2.45 27.96 7.35M812.36 84.08c2.9-2.5 4.34-6.49 4.34-12 0-5.5-1.49-9.28-4.46-11.32-2.97-2.05-8.27-3.08-15.9-3.08h-18.09v30.14h17.72c8.03 0 13.5-1.25 16.4-3.74m18.92-11.93c0 13.9-6.07 22.66-18.2 26.27l22.05 30.62h-18.08l-20.12-28.33h-18.69v28.33h-14.22V44.78h31.34c12.85 0 22.06 2.17 27.6 6.51 5.54 4.34 8.32 11.3 8.32 20.86" fill="#104352" fill-rule="nonzero"></path><path fill="#104352" d="M360.13 73.23h14.22v55.81h-14.22zM360.13 44.66h14.22v13.96h-14.22z"></path><path d="M326.54 44.08v84h-14v-71h-24v-13h38z" fill="#104352" fill-rule="nonzero"></path><path fill="#f2643c" d="M60.54 46.08h25v26h-25z"></path><path d="M114.54 46.08v158h26v-132h48v-26h-74z" fill="#cde0f0" fill-rule="nonzero"></path></svg>